<?xml version="1.0" encoding="utf-8"?>
<!-- Generator: Adobe Illustrator 21.1.0, SVG Export Plug-In . SVG Version: 6.00 Build 0)  -->
<svg version="1.1" id="Layer_1" xmlns="http://www.w3.org/2000/svg" xmlns:xlink="http://www.w3.org/1999/xlink" x="0px" y="0px"
	 viewBox="0 0 60 60" style="enable-background:new 0 0 60 60;" xml:space="preserve">
<style type="text/css">
	.st0{fill:#001F49;}
</style>
<title>Padlock</title>
<desc>Created using Figma</desc>
<g>
	<path class="st0" d="M42.8,23.5v-8.1c0-7.1-5.7-12.9-12.8-12.9S17.2,8.2,17.2,15.4v8.1H11v29.9c1.8,1.2,8.2,3.6,19,3.6
		s17.2-2.4,19-3.6V23.5H42.8z M23.8,23.5v-8c0-3.5,2.8-6.3,6.2-6.3s6.2,2.8,6.2,6.3v8H23.8z M19.6,15.4c0-5.8,4.7-10.5,10.5-10.5
		s10.5,4.7,10.5,10.5v8.1h-1.9v-8c0-4.8-3.8-8.7-8.5-8.7s-8.5,3.9-8.5,8.7v8h-2.1L19.6,15.4z M46.6,52c-2.4,1-7.9,2.6-16.6,2.6
		S15.8,53,13.4,52V25.9h33.2V52z"/>
	<path class="st0" d="M28.6,40.4v6.1h2.8v-6.1c1.1-0.5,1.9-1.7,1.9-3c0-1.9-1.5-3.4-3.3-3.4s-3.3,1.5-3.3,3.4
		C26.7,38.7,27.5,39.9,28.6,40.4z"/>
</g>
</svg>
